<?xml version="1.0" standalone="no"?>
<!DOCTYPE svg PUBLIC "-//W3C//DTD SVG 20010904//EN"
 "http://www.w3.org/TR/2001/REC-SVG-20010904/DTD/svg10.dtd">
<svg version="1.0" xmlns="http://www.w3.org/2000/svg"
 width="300.000000pt" height="72.000000pt" viewBox="0 0 300.000000 72.000000"
 preserveAspectRatio="xMidYMid meet">
<metadata>
Created by potrace 1.10, written by Peter Selinger 2001-2011
</metadata>
<g transform="translate(0.000000,72.000000) scale(0.100000,-0.100000)"
fill="#000000" stroke="none">
<path d="M1181 593 c-51 -26 -73 -62 -74 -120 -1 -92 39 -143 113 -143 23 0
30 4 30 20 0 15 -7 20 -29 20 -41 0 -71 40 -71 95 0 55 30 95 71 95 26 0 30 3
27 22 -4 29 -25 33 -67 11z"/>
<path d="M1290 471 l0 -141 25 0 c24 0 25 3 25 55 0 54 0 55 30 55 30 0 30 0
30 -59 0 -57 1 -58 25 -53 l26 4 -3 137 c-3 128 -4 136 -23 136 -17 0 -20 -8
-23 -58 l-3 -58 -32 3 c-31 3 -31 3 -28 56 1 29 -2 52 -7 52 -6 0 -17 3 -26 6
-14 5 -16 -10 -16 -135z"/>
<path d="M1570 583 c0 -17 6 -23 24 -23 l23 0 -5 -115 -5 -115 27 0 26 0 0
115 0 115 26 0 c20 0 25 4 22 21 -3 19 -10 21 -71 23 -63 1 -67 0 -67 -21z"/>
<path d="M1750 605 c0 0 -1 -63 -1 -140 -1 -77 2 -139 5 -137 3 1 13 2 20 2
11 0 16 15 18 53 l4 52 23 -52 c16 -37 29 -52 47 -56 13 -2 26 -2 28 1 3 2 -8
30 -24 62 l-29 57 22 21 c26 27 28 83 3 111 -14 16 -60 26 -116 26z m78 -57
c17 -17 15 -44 -4 -62 -25 -26 -34 -19 -34 29 0 46 13 58 38 33z"/>
<path d="M2267 604 c-4 -4 -7 -67 -7 -141 l0 -133 24 0 c24 0 24 1 19 83 -6
95 1 94 42 -10 24 -62 32 -73 52 -73 l24 0 -3 138 c-3 134 -4 137 -25 140 -22
3 -23 1 -23 -85 l-1 -88 -33 85 c-30 78 -50 102 -69 84z"/>
<path d="M2510 603 c-32 -12 -50 -37 -50 -71 0 -28 8 -43 41 -74 53 -51 52
-84 -3 -82 -36 1 -55 -16 -42 -37 11 -18 93 -10 114 11 34 34 26 76 -25 128
-54 55 -60 86 -15 80 23 -4 31 0 36 15 9 29 -19 44 -56 30z"/>
<path d="M2630 471 l0 -141 25 0 26 0 -3 138 c-3 134 -4 137 -25 140 -23 3
-23 3 -23 -137z"/>
<path d="M2713 593 c-7 -18 6 -33 28 -33 18 0 19 -8 19 -115 l0 -115 25 0 25
0 0 115 0 115 25 0 c20 0 24 4 22 22 -3 19 -10 21 -72 22 -44 1 -69 -3 -72
-11z"/>
<path d="M2007 465 c-37 -74 -67 -136 -67 -138 0 -1 63 -2 140 -2 77 0 139 3
138 6 -14 36 -133 269 -138 269 -3 0 -36 -61 -73 -135z m109 14 c19 -39 34
-72 32 -74 -2 -2 -22 -5 -45 -6 -50 -4 -64 14 -16 19 l33 3 -21 41 -20 40 -30
-62 c-16 -34 -29 -64 -29 -66 0 -2 33 -4 74 -4 41 0 78 -4 81 -10 4 -6 -30
-10 -94 -10 -56 0 -101 2 -101 5 0 6 94 195 97 195 2 0 19 -32 39 -71z"/>
<path d="M167 562 c-15 -16 -17 -46 -17 -210 0 -186 1 -191 22 -206 19 -14 72
-16 374 -16 340 0 352 1 378 21 l26 20 0 183 c0 148 -3 186 -16 204 l-15 22
-368 0 c-344 0 -369 -1 -384 -18z m740 -24 c16 -18 18 -40 18 -184 0 -139 -2
-166 -17 -180 -14 -14 -42 -17 -175 -19 -284 -3 -533 7 -549 22 -11 11 -14 51
-14 179 0 151 2 166 20 184 20 20 32 20 360 19 325 -1 340 -2 357 -21z"/>
<path d="M657 455 c10 -13 25 -25 33 -25 13 0 13 -1 0 -10 -12 -8 -12 -10 3
-16 9 -3 14 -10 11 -15 -6 -11 6 -15 59 -23 43 -6 41 9 -3 19 -17 4 -30 10
-30 15 0 5 -15 25 -34 44 -38 41 -67 49 -39 11z"/>
<path d="M629 430 c-4 -31 -7 -35 -32 -33 -24 2 -26 0 -16 -18 6 -12 17 -18
26 -15 8 3 23 6 34 6 22 0 24 22 5 65 l-13 30 -4 -35z"/>
<path d="M294 376 c-15 -40 30 -76 59 -47 6 6 19 11 29 11 10 0 18 5 18 11 0
5 -5 7 -11 4 -6 -4 -17 2 -25 14 -17 24 -62 28 -70 7z m56 -21 c0 -18 -5 -25
-19 -25 -11 0 -23 5 -26 10 -11 18 3 40 25 40 15 0 20 -7 20 -25z"/>
<path d="M546 373 c-4 -13 -12 -23 -17 -23 -6 0 -7 5 -4 10 3 6 1 10 -4 10
-22 0 -10 -28 13 -32 28 -6 37 7 26 37 -7 19 -7 19 -14 -2z"/>
<path d="M579 328 c-9 -19 -9 -21 2 -10 7 6 21 12 31 12 16 0 18 -6 14 -40 -6
-49 0 -51 20 -5 22 54 19 65 -21 65 -25 0 -37 -6 -46 -22z"/>
<path d="M708 333 c-6 -7 -7 -13 -2 -13 5 0 1 -5 -10 -11 -15 -9 -16 -13 -5
-20 11 -7 10 -9 -3 -9 -10 0 -22 -9 -28 -21 -21 -37 -4 -30 46 21 27 27 54 50
61 50 6 0 14 3 16 8 8 12 -64 8 -75 -5z"/>
<path d="M1485 360 c-9 -15 4 -30 26 -30 12 0 19 7 19 20 0 21 -33 29 -45 10z"/>
<path d="M1120 235 c-17 -21 -9 -48 20 -62 34 -17 32 -38 -4 -38 -16 0 -31 -6
-33 -12 -3 -9 6 -13 25 -13 48 0 62 9 62 41 0 22 -6 32 -26 39 -30 12 -27 36
4 32 15 -2 22 2 22 12 0 21 -53 22 -70 1z"/>
<path d="M1219 243 c-1 -4 -2 -36 -3 -70 l-1 -63 43 0 c31 0 42 4 39 13 -2 7
-15 11 -30 9 -22 -3 -27 1 -27 17 0 14 6 21 20 21 11 0 20 5 20 10 0 6 -9 10
-20 10 -31 0 -24 28 8 32 15 2 27 8 27 13 0 12 -75 20 -76 8z"/>
<path d="M1331 224 c-40 -51 -16 -114 45 -114 24 0 34 5 34 15 0 11 -7 14 -24
9 -30 -7 -51 25 -42 62 5 19 13 24 36 24 20 0 30 5 30 15 0 26 -56 18 -79 -11z"/>
<path d="M1430 199 c0 -65 13 -89 48 -89 41 0 52 17 52 82 0 46 -3 58 -16 58
-12 0 -14 -8 -9 -42 4 -30 2 -49 -8 -62 -22 -30 -37 -10 -37 50 0 41 -4 54
-15 54 -11 0 -15 -12 -15 -51z"/>
<path d="M1560 180 c0 -55 3 -70 15 -70 10 0 15 16 17 60 3 50 5 58 18 50 13
-8 13 -13 2 -31 -18 -28 1 -79 30 -79 19 0 19 1 1 30 -13 23 -15 32 -5 42 28
28 -1 68 -49 68 l-29 0 0 -70z"/>
<path d="M1670 180 c0 -56 3 -70 15 -70 12 0 15 14 15 70 0 56 -3 70 -15 70
-12 0 -15 -14 -15 -70z"/>
<path d="M1720 235 c0 -8 8 -15 18 -15 14 0 17 -8 14 -55 -3 -45 -1 -55 12
-55 13 0 16 11 16 55 0 48 2 55 20 55 11 0 20 7 20 15 0 11 -12 15 -50 15 -38
0 -50 -4 -50 -15z"/>
<path d="M1840 248 c0 -2 -2 -33 -4 -70 l-4 -68 45 0 c31 0 43 4 40 13 -2 7
-15 11 -30 9 -22 -3 -27 1 -27 17 0 14 6 21 20 21 11 0 20 5 20 10 0 6 -9 10
-20 10 -31 0 -24 28 8 32 40 4 33 23 -10 26 -21 2 -38 2 -38 0z"/>
<path d="M2008 180 c-2 -59 -1 -70 13 -70 14 0 16 8 12 45 -3 24 -3 52 1 61 6
16 8 16 23 1 13 -13 14 -19 3 -31 -10 -13 -10 -22 0 -46 7 -16 19 -30 26 -30
18 0 18 11 0 35 -12 16 -12 22 1 42 14 21 14 25 -2 43 -10 11 -31 20 -46 20
-27 0 -27 -1 -31 -70z"/>
<path d="M2136 193 c-10 -32 -21 -64 -23 -70 -3 -7 2 -13 11 -13 9 0 16 7 16
15 0 9 9 15 25 15 16 0 25 -6 25 -15 0 -8 8 -15 19 -15 17 0 17 3 -4 68 -28
87 -45 91 -69 15z"/>
<path d="M2240 180 c0 -56 3 -70 15 -70 8 0 15 9 15 19 0 12 9 23 23 27 27 8
37 22 37 51 0 25 -27 43 -64 43 -25 0 -26 -2 -26 -70z m58 22 c2 -15 -2 -22
-12 -22 -11 0 -16 9 -16 26 0 31 23 28 28 -4z"/>
<path d="M2350 180 c0 -56 3 -70 15 -70 12 0 15 14 15 70 0 56 -3 70 -15 70
-12 0 -15 -14 -15 -70z"/>
<path d="M2408 180 l-3 -70 37 0 c47 0 68 21 68 70 0 44 -26 70 -71 70 -27 0
-27 -1 -31 -70z m72 20 c16 -30 -6 -69 -37 -70 -13 0 -19 81 -7 93 9 9 34 -4
44 -23z"/>
<path d="M2540 180 c0 -56 3 -70 15 -70 12 0 15 14 15 70 0 56 -3 70 -15 70
-12 0 -15 -14 -15 -70z"/>
<path d="M2580 235 c0 -8 9 -15 20 -15 18 0 20 -7 20 -55 0 -42 3 -55 15 -55
12 0 15 13 15 55 0 42 3 55 15 55 8 0 15 7 15 15 0 11 -12 15 -50 15 -38 0
-50 -4 -50 -15z"/>
<path d="M2700 180 l0 -70 40 0 c29 0 40 4 40 15 0 11 -7 14 -25 9 -21 -5 -25
-3 -25 15 0 14 6 21 20 21 11 0 20 5 20 10 0 6 -9 10 -20 10 -11 0 -20 7 -20
15 0 9 9 15 25 15 16 0 25 6 25 15 0 11 -11 15 -40 15 l-40 0 0 -70z"/>
<path d="M1937 173 c-14 -13 -6 -23 18 -23 16 0 25 6 25 15 0 15 -31 21 -43 8z"/>
</g>
</svg>
